<?xml version="1.0" standalone="no"?>
<!DOCTYPE svg PUBLIC "-//W3C//DTD SVG 20010904//EN"
 "http://www.w3.org/TR/2001/REC-SVG-20010904/DTD/svg10.dtd">
<svg version="1.0" xmlns="http://www.w3.org/2000/svg"
 width="512.000000pt" height="512.000000pt" viewBox="0 0 512.000000 512.000000"
 preserveAspectRatio="xMidYMid meet">

<g transform="translate(0.000000,512.000000) scale(0.100000,-0.100000)"
fill="#000000" stroke="none">
<path d="M2385 5106 c-324 -75 -571 -317 -646 -634 -31 -128 -23 -312 20 -474
77 -293 253 -643 493 -981 100 -141 238 -300 286 -329 l33 -21 77 80 c218 224
512 695 641 1028 52 133 95 298 110 420 36 299 -107 607 -364 782 -82 55 -125
76 -225 108 -73 24 -106 28 -225 31 -95 2 -159 -1 -200 -10z m350 -172 c351
-90 569 -442 501 -809 -57 -304 -260 -696 -589 -1137 -44 -60 -83 -108 -86
-108 -9 0 -179 231 -268 365 -274 412 -423 771 -423 1022 0 449 428 779 865
667z"/>
<path d="M2435 4624 c-139 -44 -229 -149 -256 -298 -32 -171 52 -335 209 -409
62 -30 75 -32 172 -32 95 0 111 3 167 29 73 33 154 113 184 181 64 145 35 326
-70 433 -24 25 -73 58 -109 75 -57 27 -81 32 -157 34 -61 2 -106 -2 -140 -13z
m190 -145 c55 -14 122 -70 146 -123 46 -102 7 -233 -86 -291 -43 -27 -57 -30
-125 -30 -68 0 -82 3 -125 30 -99 61 -134 193 -80 301 49 98 154 142 270 113z"/>
<path d="M575 3055 c-27 -21 -168 -156 -313 -300 l-262 -260 0 -45 c0 -111 54
-241 136 -330 101 -109 213 -160 350 -160 l74 0 0 -900 0 -900 -254 0 c-241 0
-255 -1 -280 -21 -33 -26 -36 -79 -6 -109 20 -20 33 -20 2540 -20 l2519 0 21
22 c27 30 26 73 -5 103 l-24 25 -256 0 -255 0 0 900 0 900 74 0 c133 0 250 51
346 151 83 87 139 222 140 339 l0 45 -262 260 c-145 144 -286 279 -313 300
l-50 40 -719 -5 c-696 -5 -718 -6 -732 -24 -8 -11 -14 -34 -14 -52 0 -41 39
-74 86 -74 l32 0 63 -187 c34 -104 64 -194 67 -200 3 -10 -145 -13 -718 -13
-573 0 -721 3 -718 13 3 6 33 96 67 200 l63 187 32 0 c47 0 86 33 86 74 0 18
-6 41 -14 52 -14 18 -36 19 -732 24 l-719 5 -50 -40z m535 -122 c0 -5 -56 -93
-123 -198 l-123 -190 -300 -2 -299 -2 205 199 205 200 218 0 c119 0 217 -3
217 -7z m690 -4 c0 -6 -27 -96 -61 -200 l-61 -189 -315 0 -315 0 14 23 c8 12
66 102 128 200 l114 177 248 0 c173 0 248 -3 248 -11z m2146 -187 c68 -105
124 -194 124 -197 0 -3 -140 -4 -312 -3 l-311 3 -64 190 c-34 104 -63 193 -63
197 0 5 113 7 251 6 l251 -3 124 -193z m706 -2 l203 -199 -300 2 -299 2 -123
190 c-67 105 -123 193 -123 198 0 4 99 7 220 7 l219 0 203 -200z m-3847 -399
c-43 -122 -135 -200 -259 -219 -148 -23 -287 45 -349 172 -46 93 -70 86 298
86 l324 0 -14 -39z m828 -7 c-30 -90 -123 -179 -211 -204 -48 -13 -156 -13
-204 0 -88 25 -181 114 -211 204 l-16 46 329 0 329 0 -16 -46z m837 33 c0 -31
-64 -139 -102 -172 -66 -56 -137 -78 -238 -73 -66 4 -96 10 -135 30 -78 41
-143 119 -169 206 l-7 22 325 0 c266 0 326 -2 326 -13z m825 -14 c-18 -76 -95
-167 -174 -205 -39 -19 -62 -23 -146 -23 -116 0 -170 20 -238 88 -36 36 -87
126 -87 155 0 9 72 12 326 12 l326 0 -7 -27z m829 5 c-15 -51 -54 -115 -91
-150 -118 -114 -318 -120 -448 -14 -41 34 -105 139 -105 173 0 11 60 13 326
13 l325 0 -7 -22z m826 7 c0 -29 -51 -116 -91 -156 -64 -64 -138 -93 -234 -93
-62 0 -90 5 -126 23 -91 43 -165 126 -189 210 l-9 31 325 0 c284 0 324 -2 324
-15z m-3952 -287 c124 -111 335 -149 494 -88 75 28 167 96 208 154 l33 46 17
-28 c29 -47 123 -127 180 -154 214 -100 473 -38 608 147 l22 30 22 -30 c91
-125 232 -195 393 -195 157 0 297 70 386 192 l27 38 22 -35 c91 -148 324 -229
513 -180 110 28 219 102 267 180 l21 34 43 -52 c23 -29 65 -68 94 -87 l51 -35
1 -927 0 -928 -1115 0 -1115 0 0 683 0 683 -26 53 c-32 64 -86 105 -155 120
-66 15 -652 15 -718 0 -68 -14 -125 -58 -156 -119 l-25 -49 0 -686 0 -685
-185 0 -185 0 0 928 1 927 55 38 c30 21 71 60 91 87 l36 49 27 -37 c15 -20 45
-54 68 -74z m993 -547 l24 -19 3 -291 3 -291 -391 0 -390 0 0 285 0 286 25 24
24 25 339 0 c320 0 341 -1 363 -19z m29 -1061 l0 -310 -390 0 -390 0 0 310 0
310 390 0 390 0 0 -310z"/>
<path d="M2708 1696 c-65 -17 -111 -56 -142 -118 l-26 -52 0 -275 c0 -167 4
-291 11 -315 14 -51 91 -128 145 -144 58 -17 1119 -17 1176 0 56 17 123 79
145 136 16 41 18 80 18 322 l0 276 -26 49 c-32 62 -93 110 -159 124 -76 16
-1080 14 -1142 -3z m502 -456 l0 -310 -231 0 -231 0 -29 30 -30 29 3 262 c3
260 3 261 27 280 21 17 42 19 257 19 l234 0 0 -310z m623 299 c43 -19 47 -45
47 -299 0 -154 -4 -248 -11 -263 -19 -43 -46 -47 -284 -47 l-225 0 0 310 0
310 225 0 c143 0 233 -4 248 -11z"/>
</g>
</svg>
